<svg width="28" height="28" viewBox="0 0 28 28" fill="none" xmlns="http://www.w3.org/2000/svg">
<path fill-rule="evenodd" clip-rule="evenodd" d="M19.5838 14.9907C20.0719 14.9245 20.4481 14.5061 20.4481 13.9999C20.4481 13.4476 20.0003 12.9999 19.4481 12.9999H10.9726L14.2759 9.71114L14.373 9.59919C14.6643 9.20833 14.6332 8.65271 14.2789 8.29693C13.8892 7.90558 13.2561 7.90423 12.8647 8.29392L7.84606 13.2913L7.84346 13.2943C7.81073 13.3271 7.78027 13.3623 7.75234 13.3994L7.74874 13.4036C7.45677 13.7956 7.48921 14.3531 7.84606 14.7085L12.8647 19.7058L12.9771 19.8024C13.3692 20.092 13.9247 20.0586 14.2789 19.7028L14.3755 19.5904C14.6652 19.1983 14.6317 18.6429 14.2759 18.2886L10.9745 14.9999H19.4481L19.5838 14.9907Z" fill="#F5F5F6"/>
<path opacity="0.1" fill-rule="evenodd" clip-rule="evenodd" d="M27.3334 8.2212L27.3334 19.7799C27.3334 24.318 24.0943 27.3332 19.4454 27.3332L8.55471 27.3332C3.91065 27.3332 0.666708 24.3091 0.666708 19.7799L0.666708 8.2212C0.666708 3.68282 3.90604 0.666534 8.55471 0.666534L19.4454 0.666534C24.094 0.666534 27.3334 3.68282 27.3334 8.2212ZM25.3334 19.7799L25.3334 8.2212C25.3334 4.82053 23.0201 2.66653 19.4454 2.66653L8.55471 2.66653C4.97999 2.66653 2.66671 4.82053 2.66671 8.2212L2.66671 19.7799C2.66671 23.1719 4.98508 25.3332 8.55471 25.3332L19.4454 25.3332C23.0205 25.3332 25.3334 23.1802 25.3334 19.7799Z" fill="#F5F5F6"/>
</svg>