<svg width="16" height="16" viewBox="0 0 16 16" fill="none" xmlns="http://www.w3.org/2000/svg">
<circle cx="8" cy="8" r="8" fill="#474E51"/>
<g clip-path="url(#clip0_5_23)">
<path d="M12.4 6.39999L6.93335 11.8667C7.26668 11.9333 7.66668 12 8.00002 12C10.4 12 12.2667 9.93333 13.0667 8.73333C13.4 8.26666 13.4 7.66666 13.0667 7.19999C12.9333 6.99999 12.6667 6.73333 12.4 6.39999Z" fill="#30383B"/>
<path d="M12.2 2.86666L10.4 4.66666C9.66669 4.26666 8.86669 4 8.00002 4C5.60002 4 3.73335 6.06666 2.93335 7.26666C2.60002 7.73333 2.60002 8.33333 2.93335 8.73333C3.26669 9.26666 3.86669 9.93333 4.53335 10.5333L2.86669 12.2C2.60002 12.4667 2.60002 12.8667 2.86669 13.1333C3.00002 13.2667 3.13335 13.3333 3.33335 13.3333C3.53335 13.3333 3.66669 13.2667 3.80002 13.1333L13.1334 3.8C13.4 3.53333 13.4 3.13333 13.1334 2.86666C12.8667 2.6 12.4667 2.6 12.2 2.86666ZM6.20002 8.86666C6.06669 8.6 6.00002 8.33333 6.00002 8C6.00002 6.86666 6.86669 6 8.00002 6C8.33335 6 8.60002 6.06666 8.86669 6.2L6.20002 8.86666Z" fill="#30383B"/>
</g>
<defs>
<clipPath id="clip0_5_23">
<rect width="10.6667" height="10.6667" fill="white" transform="translate(2.66669 2.66666)"/>
</clipPath>
</defs>
</svg>
